<svg id="_Слой_2" data-name="Слой 2" xmlns="http://www.w3.org/2000/svg" viewBox="0 0 595.28 841.89"><defs><linearGradient id="_Безымянный_градиент_133" data-name="Безымянный градиент 133" x1="297.64" y1="344.16" x2="297.64" y2="939.43" gradientUnits="userSpaceOnUse"><stop offset="0" stop-color="#bdb8dd"/><stop offset=".29" stop-color="#bbb6da"/><stop offset=".43" stop-color="#b6b0d3"/><stop offset=".55" stop-color="#ada7c5"/><stop offset=".64" stop-color="#a199b3"/><stop offset=".72" stop-color="#91889b"/><stop offset=".8" stop-color="#7d727d"/><stop offset=".87" stop-color="#665959"/><stop offset=".94" stop-color="#4b3c31"/><stop offset="1" stop-color="#2d1b04"/><stop offset="1" stop-color="#2d1b03"/></linearGradient><style>.cls-4,.cls-5{fill:#467567;stroke:#554f6a;stroke-miterlimit:10}.cls-5{fill:#294c42;stroke-width:.75px}</style></defs><g id="_Слой_4" data-name="Слой 4"><path d="M0 0h595.28v841.89H0z" fill="url(#_Безымянный_градиент_133)"/><path d="M0 357.64l97.52 140.3c14.99 21.57 46.19 23.5 63.72 3.93l86.67-96.71c24.66-27.52 65.48-33.45 96.95-14.09l123.28 75.82c12.6 7.75 28.97 5.19 38.6-6.04l88.53-103.21v345.18H0V357.64z" fill="#9e91c6"/><g id="_Слой_5" data-name="Слой 5"><path class="cls-5" d="M36.55 702.81l1.78-38.35h3.71l2.27 38.35h-7.76z"/><path class="cls-4" d="M13.61 676.65L36.55 490.1l33.92 186.55H13.61z"/><path class="cls-5" d="M80.9 727.79l1.77-38.36h3.71l2.28 38.36H80.9z"/><path class="cls-4" d="M57.95 701.63L80.9 515.07l33.92 186.56H57.95z"/><path class="cls-5" d="M128.46 705.03l.83-18.01h1.75l1.06 18.01h-3.64z"/><path class="cls-4" d="M117.69 692.75l10.77-87.59 15.93 87.59h-26.7z"/><path class="cls-5" d="M194.85 700.59l1.78-38.35h3.71l2.27 38.35h-7.76z"/><path class="cls-4" d="M171.91 674.43l22.94-186.55 33.92 186.55h-56.86z"/><path class="cls-5" d="M226.91 710.94l1.12-26.44h2.33l1.43 26.44h-4.88z"/><path class="cls-4" d="M212.47 692.9l14.44-128.59 21.34 128.59h-35.78z"/><path class="cls-5" d="M282.19 706l1.78-38.35h3.71l2.27 38.35h-7.76z"/><path class="cls-4" d="M259.25 679.84l22.94-186.55 33.92 186.55h-56.86z"/><path class="cls-5" d="M364.21 714.04l1.22-22.67h2.56l1.56 22.67h-5.34z"/><path class="cls-4" d="M348.39 698.58l15.82-110.27 23.37 110.27h-39.19z"/></g><path class="cls-5" d="M413.44 722.16l1.77-38.35h3.71l2.28 38.35h-7.76z"/><path class="cls-4" d="M390.49 696l22.95-186.55L447.36 696h-56.87z"/><path class="cls-5" d="M494.9 702.81l1.64-33.43h3.42l2.1 33.43h-7.16z"/><path class="cls-4" d="M473.73 680.01l21.17-162.64 31.3 162.64h-52.47z"/><path class="cls-5" d="M547.26 719.72l2.3-42.97h4.8l2.93 42.97h-10.03z"/><path class="cls-4" d="M517.59 690.41l29.67-209.03 43.86 209.03h-73.53z"/><path d="M173.34 217.51c0 5.16-16.31 6.66-23.39 10.63-5.62 3.16-.93 9.1-9.68 11-9.65 2.1-18.08-5.24-30.01-5.24-7.75 0-17.95 8.03-24.86 7.1-14.56-1.96-18.12-9.24-25.91-14.2-5.85-3.73-17.84-4.66-17.84-9.3 0-7.6 21.2-4.52 35.35-9.1 11.5-3.72 14.19-15.84 30.49-15.84 10.43 0 16.62 12.88 25.38 14.51 21.79 4.06 40.46.6 40.46 10.43zm402.93-49.08c-1.34 4.98-24.32 19.73-33.07 21.63-9.65 2.1-18.08-5.24-30.01-5.24-7.75 0-40.25 42.98-112.62-.44-46.56-27.93 44.01-11.31 44.01-15.95 0-7.6 21.2-4.52 35.35-9.1 11.5-3.72 14.19-15.84 30.49-15.84 10.43 0 16.62 12.88 25.38 14.51 21.79 4.06 50.32-26.16 40.46 10.43z" fill="#fff" opacity=".41"/><g id="_Слой_1-2" data-name="Слой 1"><path d="M0 727.79h595.28v114.1H0" fill="#ca9e67"/><path d="M0 702.81h595.28v44.23H0" fill="#95c11f"/></g></g></svg>